<svg xmlns="http://www.w3.org/2000/svg" width="1440" height="880" viewBox="0 0 1440 880" role="img" aria-labelledby="title desc"><title id="title">历史回放结果</title><desc id="desc">五年线性外推基线：中国城市化方向相符，日本人口与巴西实际人均 GDP 方向失败。不是 Skill 事前预测成绩。</desc><defs>
 <radialGradient id="ambient"><stop stop-color="#263789" stop-opacity=".65"/><stop offset="1" stop-color="#050813" stop-opacity="0"/></radialGradient>
 <radialGradient id="core"><stop stop-color="#152A4B"/><stop offset=".8" stop-color="#081426"/><stop offset="1" stop-color="#245265"/></radialGradient>
 <linearGradient id="rim" x1="0" y1="0" x2="1" y2="1"><stop stop-color="#69FBE7"/><stop offset=".5" stop-color="#6776F8"/><stop offset="1" stop-color="#B5A2FF"/></linearGradient>
 <linearGradient id="plate" x1="0" y1="0" x2="1" y2="1"><stop stop-color="#15243A"/><stop offset="1" stop-color="#080E1C"/></linearGradient>
 <filter id="glow" x="-100%" y="-100%" width="300%" height="300%"><feGaussianBlur stdDeviation="5"/></filter>
 <filter id="soft" x="-100%" y="-100%" width="300%" height="300%"><feGaussianBlur stdDeviation="24"/></filter>
 <pattern id="grid" width="60" height="60" patternUnits="userSpaceOnUse"><path d="M60 0H0V60" stroke="#91B7EE" stroke-opacity=".045" fill="none"/></pattern>
 <marker id="arrow" markerWidth="9" markerHeight="9" refX="7" refY="4" orient="auto"><path d="M1 1L7 4L1 7" stroke="#60F4E5" fill="none"/></marker>
 </defs><rect width="1440" height="880" rx="28" fill="#050813"/><rect width="1440" height="880" rx="28" fill="url(#grid)"/><ellipse cx="1060" cy="240" rx="650" ry="480" fill="url(#ambient)"/>
 <path d="M32 78V32H78 M1362 32H1408V78 M32 802V848H78 M1362 848H1408V802" stroke="#6478A6" stroke-opacity=".5" fill="none"/>
 <g font-family="'PingFang SC','Microsoft YaHei','Noto Sans CJK SC',sans-serif"><text x="72" y="78" font-size="18" fill="#60F4E5" font-weight="400" text-anchor="start" >02 / EVALUATION</text><text x="72" y="140" font-size="43" fill="#F0F5FF" font-weight="600" text-anchor="start" >预测与实际，在哪里分叉</text><text x="72" y="184" font-size="22" fill="#9DAFC9" font-weight="400" text-anchor="start" >数值基线的历史重建，不是 Skill 事前预测成绩。</text><rect x="72" y="224" width="608" height="490" rx="24" fill="url(#plate)" stroke="#5BA99C" stroke-opacity=".4"/><text x="104" y="269" font-size="28" fill="#F0F5FF" font-weight="600" text-anchor="start" >中国 · 城市化</text><text x="104" y="303" font-size="17" fill="#9DAFC9" font-weight="400" text-anchor="start" >2010 → 2015</text><text x="644" y="269" font-size="20" fill="#60F4E5" font-weight="400" text-anchor="end" >方向相符</text><path d="M125 589L505 451" fill="none" stroke="#7795FF" stroke-opacity="1" stroke-width="2"/><path d="M125 589L505 411" fill="none" stroke="#60F4E5" stroke-opacity="1" stroke-width="3"/><path d="M125 589L505 411" fill="none" stroke="#60F4E5" stroke-width="12" opacity=".25" filter="url(#glow)"/><circle cx="125" cy="589" r="5" fill="#9DAFC9"/><circle cx="505" cy="451" r="5" fill="#7795FF"/><circle cx="505" cy="411" r="5" fill="#60F4E5"/><text x="105" y="627" font-size="18" fill="#9DAFC9" font-weight="400" text-anchor="start" >起点 49.23%</text><text x="506" y="380" font-size="23" fill="#60F4E5" font-weight="400" text-anchor="middle" >实际 57.33%</text><text x="506" y="487" font-size="22" fill="#7795FF" font-weight="400" text-anchor="middle" >外推 55.52%</text><path d="M106 650L644 650" fill="none" stroke="#7795FF" stroke-opacity="0.2" stroke-width="1"/><text x="105" y="688" font-size="18" fill="#9DAFC9" font-weight="400" text-anchor="start" >绝对误差</text><text x="644" y="689" font-size="27" fill="#F0F5FF" font-weight="500" text-anchor="end" >1.81 个百分点</text><rect x="704" y="224" width="664" height="236" rx="24" fill="url(#plate)" stroke="#778BB6" stroke-opacity=".23"/><text x="734" y="267" font-size="26" fill="#F0F5FF" font-weight="600" text-anchor="start" >日本 · 人口</text><text x="1336" y="267" font-size="20" fill="#FF9D8E" font-weight="400" text-anchor="end" >方向失败</text><text x="734" y="300" font-size="16" fill="#9DAFC9" font-weight="400" text-anchor="start" >2010 → 2015</text><text x="734" y="343" font-size="16" fill="#7795FF" font-weight="400" text-anchor="start" >外推</text><text x="805" y="345" font-size="29" fill="#F0F5FF" font-weight="500" text-anchor="start" >1.2834 亿</text><text x="734" y="384" font-size="16" fill="#FF9D8E" font-weight="400" text-anchor="start" >实际</text><text x="805" y="386" font-size="29" fill="#FF9D8E" font-weight="500" text-anchor="start" >1.2714 亿</text><text x="734" y="431" font-size="19" fill="#9DAFC9" font-weight="400" text-anchor="start" >绝对误差  120.06 万人</text><path d="M1134 369L1300 317" fill="none" stroke="#7795FF" stroke-opacity="1" stroke-width="2"/><path d="M1134 369L1300 404" fill="none" stroke="#FF9D8E" stroke-opacity="1" stroke-width="2"/><circle cx="1134" cy="369" r="4" fill="#9DAFC9"/><text x="1320" y="435" font-size="13" fill="#9DAFC9" font-weight="400" text-anchor="end" >方向示意</text><rect x="704" y="478" width="664" height="236" rx="24" fill="url(#plate)" stroke="#778BB6" stroke-opacity=".23"/><text x="734" y="521" font-size="26" fill="#F0F5FF" font-weight="600" text-anchor="start" >巴西 · 实际人均 GDP</text><text x="1336" y="521" font-size="20" fill="#FF9D8E" font-weight="400" text-anchor="end" >方向失败</text><text x="734" y="554" font-size="16" fill="#9DAFC9" font-weight="400" text-anchor="start" >2015 → 2020</text><text x="734" y="597" font-size="16" fill="#7795FF" font-weight="400" text-anchor="start" >外推</text><text x="805" y="599" font-size="29" fill="#F0F5FF" font-weight="500" text-anchor="start" >9,110.43</text><text x="734" y="638" font-size="16" fill="#FF9D8E" font-weight="400" text-anchor="start" >实际</text><text x="805" y="640" font-size="29" fill="#FF9D8E" font-weight="500" text-anchor="start" >8,435.01</text><text x="734" y="685" font-size="19" fill="#9DAFC9" font-weight="400" text-anchor="start" >绝对误差  675.42 美元</text><path d="M1134 623L1300 571" fill="none" stroke="#7795FF" stroke-opacity="1" stroke-width="2"/><path d="M1134 623L1300 658" fill="none" stroke="#FF9D8E" stroke-opacity="1" stroke-width="2"/><circle cx="1134" cy="623" r="4" fill="#9DAFC9"/><text x="1320" y="689" font-size="13" fill="#9DAFC9" font-weight="400" text-anchor="end" >方向示意</text><text x="72" y="767" font-size="21" fill="#9DAFC9" font-weight="400" text-anchor="start" >外推：截点前五年线性趋势  /  结果：五年后观测值</text><text x="72" y="809" font-size="18" fill="#9DAFC9" font-weight="400" text-anchor="start" >固定展示题，非随机样本。数据：WDI 修订快照；GDP 单位为 2015 年不变价美元。</text><text x="1368" y="850" font-size="13" fill="#60F4E5" font-weight="400" text-anchor="end" >BASELINE REPLAY / 3 CASES</text></g></svg>
